<?xml version="1.0" encoding="UTF-8"?>
<!DOCTYPE svg PUBLIC "-//W3C//DTD SVG 1.1//EN" "http://www.w3.org/Graphics/SVG/1.1/DTD/svg11.dtd">
<svg version="1.1" xmlns="http://www.w3.org/2000/svg" xmlns:xlink="http://www.w3.org/1999/xlink" x="0" y="0" width="180" height="180" viewBox="0, 0, 180, 180">
  <g id="Layer_1" transform="translate(-183.915, -407.768)">
    <path d="M183.915,407.768 L195.307,407.768 L195.307,413.584 Q195.307,422.078 199.277,426.076 Q203.248,430.075 210.613,430.075 L258.179,430.075 Q263.876,430.075 267.207,431.614 Q270.538,433.152 272.306,436.337 Q274.075,439.522 274.844,444.318 L272.987,444.318 Q273.948,439.522 275.621,436.337 Q277.293,433.152 280.624,431.614 Q283.954,430.075 289.652,430.075 L337.218,430.075 Q344.582,430.075 348.553,426.076 Q352.524,422.078 352.524,413.584 L352.524,407.768 L363.915,407.768 L363.915,415.867 Q363.915,430.535 357.569,437.978 Q351.223,445.422 338.417,445.422 L289.435,445.422 Q284.378,445.422 282.07,447.969 Q279.763,450.515 279.763,455.027 L279.763,462.468 L268.152,462.468 L268.152,455.027 Q268.152,450.515 265.858,447.969 Q263.564,445.422 258.396,445.422 L209.414,445.422 Q196.8,445.422 190.358,437.978 Q183.915,430.535 183.915,415.867 z" fill="#000000"/>
    <g>
      <path d="M235.144,587.768 L235.144,579.232 L251.229,579.232 L251.229,461.425 L235.144,461.425 L235.144,452.89 L261.453,452.89 L261.453,587.768 z" fill="#000000"/>
      <path d="M312.687,452.89 L312.687,461.425 L296.602,461.425 L296.602,579.232 L312.687,579.232 L312.687,587.768 L286.377,587.768 L286.377,452.89 z" fill="#000000"/>
    </g>
  </g>
</svg>
