<?xml version="1.0" encoding="UTF-8"?>
<!DOCTYPE svg PUBLIC "-//W3C//DTD SVG 1.1//EN" "http://www.w3.org/Graphics/SVG/1.1/DTD/svg11.dtd">
<svg version="1.1" xmlns="http://www.w3.org/2000/svg" xmlns:xlink="http://www.w3.org/1999/xlink" x="0" y="0" width="181.82" height="179.546" viewBox="0, 0, 181.82, 179.546">
  <g id="Layer_1" transform="translate(-183.005, -407.768)">
    <g id="Templ">
      <g>
        <path d="M308.687,452.686 L308.687,460.972 L292.602,460.972 L292.602,461.222 L292.601,461.222 L292.601,579.028 L308.687,579.028 L308.687,587.314 L287.269,587.314 L287.269,587.31 L287.268,587.31 C284.535,587.035 282.487,585.235 282.378,582.382 L282.378,582.375 L282.378,582.375 L282.378,457.625 L282.378,457.625 L282.378,457.619 L282.378,457.617 C282.537,454.725 284.59,453.16 287.268,452.69 L287.269,452.69 L287.269,452.686 L308.687,452.686 z" fill="#000000"/>
        <path d="M239.144,452.686 L239.144,460.972 L255.229,460.972 L255.229,461.222 L255.229,461.222 L255.229,579.028 L239.144,579.028 L239.144,587.314 L260.562,587.314 L260.562,587.31 L260.562,587.31 C263.295,587.035 265.343,585.235 265.453,582.382 L265.453,582.375 L265.453,582.375 L265.453,457.625 L265.453,457.625 L265.453,457.619 L265.453,457.617 C265.293,454.725 263.241,453.16 260.562,452.69 L260.562,452.69 L260.562,452.686 L239.144,452.686 z" fill="#000000"/>
      </g>
      <g>
        <path d="M364.825,407.768 L364.825,415.867 Q364.826,430.535 358.479,437.978 Q352.133,445.422 339.327,445.422 L290.345,445.422 C282.08,447.036 277.392,455.122 274.001,462.101 L273.915,462.277 L273.83,462.101 C270.424,455.088 265.756,447.084 257.485,445.422 L208.504,445.422 Q195.698,445.422 189.351,437.978 Q183.005,430.535 183.005,415.867 L183.005,407.768 L186.992,416.144 Q193.289,428.885 209.703,430.075 L257.269,430.075 Q262.966,430.075 266.297,431.614 Q269.628,433.152 271.3,436.337 C272.625,438.8 273.297,441.531 273.915,444.237 C274.407,441.487 275.352,438.859 276.531,436.337 Q278.203,433.152 281.534,431.614 Q284.865,430.075 290.562,430.075 L338.128,430.075 Q354.542,428.885 360.838,416.144 L364.825,407.768 z" fill="#000000"/>
        <path d="M274.419,471.154 L274.412,580.154" fill-opacity="0" stroke="#000AFF" stroke-width="0.25" stroke-dasharray="0.5,0.5"/>
      </g>
    </g>
  </g>
</svg>
